<svg xmlns="http://www.w3.org/2000/svg" viewBox="0 0 420 420"><defs><style>.a{fill:#231815;}.b{fill:none;stroke:#fff;stroke-miterlimit:10;stroke-width:10px;}.c{fill:#588635;}.d{fill:#437134;}.e{fill:#305523;}</style></defs><circle class="a" cx="210" cy="210" r="210"/><path class="b" d="M108.69,166.05V290.14c14.31,21.05,35.68,37.58,61.05,46.75v48.48h90.52v-48c25.17-8.79,46.5-24.8,61.05-45.3v-126" transform="translate(-5 -5)"/><path class="b" d="M260.43,181.14a33.32,33.32,0,0,0-30.61,20.14H199.69a33,33,0,1,0,2.14,5.88h26.09a33.74,33.74,0,0,0-.81,7.3,33.32,33.32,0,1,0,33.32-33.32Z" transform="translate(-5 -5)"/><rect class="c" x="42.56" y="114.54" width="334.87" height="28.72" rx="6.65"/><rect class="d" x="103.69" y="75.07" width="212.62" height="39.47"/><path class="e" d="M113.69,35.61H306.31a10,10,0,0,1,10,10V75.07a0,0,0,0,1,0,0H103.69a0,0,0,0,1,0,0V45.61A10,10,0,0,1,113.69,35.61Z"/></svg>