<svg xmlns="http://www.w3.org/2000/svg" viewBox="0 0 334.87 349.76"><defs><style>.a{fill:none;stroke:#fff;stroke-miterlimit:10;stroke-width:10px;}.b{fill:#588635;}.c{fill:#437134;}.d{fill:#305523;}</style></defs><path class="a" d="M108.69,166.05V290.14c14.31,21.05,35.68,37.58,61.05,46.75v48.48h90.52v-48c25.17-8.79,46.5-24.8,61.05-45.3v-126" transform="translate(-47.56 -40.61)"/><path class="a" d="M260.43,181.14a33.32,33.32,0,0,0-30.61,20.14H199.69a33,33,0,1,0,2.14,5.88h26.09a33.74,33.74,0,0,0-.81,7.3,33.32,33.32,0,1,0,33.32-33.32Z" transform="translate(-47.56 -40.61)"/><rect class="b" y="78.94" width="334.87" height="28.72" rx="6.65"/><rect class="c" x="61.13" y="39.47" width="212.62" height="39.47"/><path class="d" d="M71.13,0H263.75a10,10,0,0,1,10,10V39.47a0,0,0,0,1,0,0H61.13a0,0,0,0,1,0,0V10A10,10,0,0,1,71.13,0Z"/></svg>